<svg id="Daml" xmlns="http://www.w3.org/2000/svg" width="644" height="164" viewBox="0 0 644 164">
  <defs>
    <style>
      .cls-1 {
        fill: #fff;
      }

      .cls-1, .cls-2 {
        fill-rule: evenodd;
      }

      .cls-2 {
        fill: #71dee8;
      }
    </style>
  </defs>
  <g id="dark">
    <path id="daml_" data-name="daml   " class="cls-1" d="M252.489,115.744a28.125,28.125,0,0,1-23.167,11.88c-14.454,0-25.344-11.088-25.344-26.136,0-13.861,9.7-26.335,24.75-26.335a29.526,29.526,0,0,1,23.761,11.88v28.71Zm25.74,33.661V8.822h-25.74V60.3c-7.524-5.94-16.633-8.91-27.127-8.91-26.136,0-47.125,21.78-47.125,50.1a51.54,51.54,0,0,0,12.276,33.66,48.282,48.282,0,0,0,36.235,16.237,40.154,40.154,0,0,0,26.731-9.7v7.722h24.75Zm96.028-33.661a28.125,28.125,0,0,1-23.167,11.88c-14.454,0-25.344-11.088-25.344-26.136,0-13.861,9.7-26.335,24.75-26.335a29.526,29.526,0,0,1,23.761,11.88v28.71ZM400,53.373h-24.75V61.1a44,44,0,0,0-28.117-9.7c-26.136,0-47.125,21.78-47.125,50.1a51.54,51.54,0,0,0,12.276,33.66,48.282,48.282,0,0,0,36.235,16.237,40.154,40.154,0,0,0,26.731-9.7v7.722H400V53.373Zm55.437,96.032V87.034c3.564-4.554,11.484-11.88,22.374-11.88a19.286,19.286,0,0,1,14.455,5.94c2.97,3.366,4.752,7.722,4.752,16.434v51.877h25.74V98.518a84.353,84.353,0,0,0-.792-10.692c3.366-4.95,12.078-12.672,23.167-12.672a19.282,19.282,0,0,1,14.454,5.94c2.97,3.366,4.752,7.722,4.752,16.434v51.877h25.74V98.518c0-14.256-3.564-24.156-9.7-31.681-7.722-9.5-20.394-15.444-33.66-15.444-14.257,0-26.335,6.93-34.057,15.048a41.85,41.85,0,0,0-32.275-15.048,38.177,38.177,0,0,0-25.938,9.7V53.373H429.693v96.032h25.741ZM643.533,8.822h-25.74V149.405h25.74V8.822Z"/>
    <g id="A_copy" data-name="A copy">
      <path id="Rectangle_2_copy_4" data-name="Rectangle 2 copy 4" class="cls-2" d="M45,9L88.492,148.173H119.42L76,9H45Z"/>
      <path class="cls-2" d="M48.413,98.5L32.946,148.613H2.018L17.485,98.5H48.413Z"/>
      <path id="Rectangle_2_copy" data-name="Rectangle 2 copy" class="cls-1" d="M76.242,8.355L60.381,59.738H29.453L45.316,8.357Z"/>
    </g>
  </g>
</svg>
